<svg width="96" height="24" viewBox="0 0 96 24" fill="none" xmlns="http://www.w3.org/2000/svg">
<path d="M16.126 21.2652L16.1285 21.2627L16.131 21.2602C17.8614 19.5221 18.7405 17.3598 18.7724 14.8021H14.5061C14.4863 16.433 13.9913 17.6973 13.053 18.6398C12.1218 19.5752 10.8858 20.0571 9.30133 20.0571C7.74735 20.0571 6.54186 19.5766 5.63925 18.6441C4.73963 17.7147 4.26667 16.4183 4.26667 14.7V2.57143C4.26667 1.38796 3.31154 0.428571 2.13333 0.428571C0.955126 0.428571 0 1.38796 0 2.57143V14.6571C0 17.3294 0.861245 19.5562 2.59833 21.3017C4.31146 23.052 6.56016 23.9143 9.30133 23.9143C12.0187 23.9143 14.3042 23.0351 16.126 21.2652Z" fill="#F25824"/>
<path d="M14.5067 9.83943V2.57143C14.5067 1.38796 15.4618 0.428571 16.64 0.428571C17.8182 0.428571 18.7733 1.38796 18.7733 2.57143V9.83943H14.5067Z" fill="#F25824"/>
<path d="M22.1867 14.8021V21.4286C22.1867 22.612 23.1418 23.5714 24.32 23.5714C25.4982 23.5714 26.4533 22.612 26.4533 21.4286V14.8021H22.1867Z" fill="#F25824"/>
<path d="M26.4533 9.83943L22.1867 9.83943V9.34285C22.1867 6.6706 23.0479 4.44381 24.785 2.69829C26.4981 0.94804 28.7468 0.085713 31.488 0.085713C34.2054 0.085713 36.4909 0.964934 38.3126 2.7348L38.3152 2.73729L38.3177 2.73981C40.0807 4.51065 40.96 6.72181 40.96 9.34285V9.83943H36.6933V9.3C36.6933 7.61965 36.1975 6.32228 35.2396 5.36019C34.3084 4.42482 33.0725 3.94286 31.488 3.94286C29.934 3.94286 28.7285 4.42335 27.8259 5.35589C26.9263 6.28534 26.4533 7.58172 26.4533 9.3V9.83943Z" fill="#F25824"/>
<path d="M36.6933 14.8021V21.4286C36.6933 22.612 37.6485 23.5714 38.8267 23.5714C40.0049 23.5714 40.96 22.612 40.96 21.4286V14.8021H36.6933Z" fill="#F25824"/>
<path d="M44.9817 14.8021V21.2683C44.9817 22.4693 45.9509 23.4429 47.1466 23.4429C48.3423 23.4429 49.3115 22.4693 49.3115 21.2683V14.8021H44.9817Z" fill="#F25824"/>
<path d="M52.7108 14.8021C53.1195 17.1411 54.0728 19.1122 55.5855 20.6967C57.691 22.901 60.3648 24 63.5733 24C66.7818 24 69.4557 22.901 71.5612 20.6967C73.0739 19.1122 74.0272 17.1411 74.4359 14.8021H69.9352C69.6414 16.062 69.1302 17.1018 68.4134 17.9338L68.4108 17.9369C67.22 19.3456 65.623 20.0571 63.5733 20.0571C61.5236 20.0571 59.9267 19.3456 58.7359 17.9369L58.7333 17.9338C58.0165 17.1018 57.5053 16.062 57.2115 14.8021H52.7108Z" fill="#F25824"/>
<path d="M57.0803 9.83943H52.6135C52.9521 7.21745 53.9363 5.03076 55.5854 3.30338C57.6909 1.09912 60.3648 0 63.5733 0C66.7818 0 69.4557 1.09903 71.5612 3.30329C73.2102 5.03067 74.1945 7.21742 74.5331 9.83943L70.0664 9.83943C69.8096 8.26195 69.252 6.99668 68.4134 6.0233C67.2235 4.64223 65.6259 3.94286 63.5733 3.94286C61.5208 3.94286 59.9231 4.64223 58.7333 6.0233C57.8947 6.99668 57.3371 8.26195 57.0803 9.83943Z" fill="#F25824"/>
<path d="M77.2267 14.8021V21.4286C77.2267 22.612 78.1818 23.5714 79.36 23.5714C80.5382 23.5714 81.4933 22.612 81.4933 21.4286V14.8021H77.2267Z" fill="#F25824"/>
<path d="M81.4933 9.83943H77.2267V9.34285C77.2267 6.67055 78.0879 4.44373 79.8251 2.69819C81.5382 0.948008 83.7868 0.085713 86.528 0.085713C89.2454 0.085713 91.5309 0.964934 93.3526 2.7348L93.3552 2.73729L93.3577 2.73981C95.1207 4.51065 96 6.72181 96 9.34285V21.4286C96 22.612 95.0449 23.5714 93.8667 23.5714C92.6885 23.5714 91.7333 22.612 91.7333 21.4286V9.3C91.7333 7.61965 91.2375 6.32228 90.2796 5.36019C89.3484 4.42482 88.1125 3.94286 86.528 3.94286C84.974 3.94286 83.7685 4.42335 82.8659 5.35589C81.9663 6.28534 81.4933 7.58172 81.4933 9.3V9.83943Z" fill="#F25824"/>
<path d="M49.3115 9.83943L44.9817 9.83943V2.64607C44.9817 1.44507 45.9509 0.47147 47.1466 0.47147C48.3423 0.47147 49.3115 1.44507 49.3115 2.64607V9.83943Z" fill="#F25824"/>
</svg>
